<?xml version="1.0" encoding="UTF-8"?>
<svg id="Layer_1" data-name="Layer 1" xmlns="http://www.w3.org/2000/svg" viewBox="0 0 184.52 184.52">
  <defs>
    <style>
      .cls-1 {
        fill: #cde932;
      }
    </style>
  </defs>
  <rect width="184.52" height="184.52"/>
  <g>
    <path class="cls-1" d="M25.52,67.77h19.88c11.08,0,17.75,5.54,17.75,14.06,0,5.18-1.85,12.14-10.16,16.9l7.31,18.04h-16.62l-5.11-16.33h-2.63l-2.56,16.33h-15.62l7.74-49ZM47.39,83.75c0-2.91-1.92-3.91-4.69-3.91h-3.55l-1.35,8.52h3.98c3.05,0,5.61-1.7,5.61-4.62Z"/>
    <path class="cls-1" d="M64.58,67.77h33.09l-2.06,12.64h-17.54l-.92,5.54h16.62l-1.99,12.36h-16.55l-.92,5.82h18.25l-1.99,12.64h-33.73l7.74-49Z"/>
    <path class="cls-1" d="M101.53,67.77h19.46c10.58,0,17.18,6.11,17.18,16.12s-6.89,18.32-20.38,18.32h-6.04l-2.34,14.56h-15.62l7.74-49ZM122.4,84.53c0-2.98-1.63-4.33-4.83-4.33h-2.63l-1.49,9.59h2.77c4.05,0,6.18-1.78,6.18-5.26Z"/>
    <path class="cls-1" d="M129.44,110.02l7.74-10.15c3.91,3.69,8.31,5.18,11.15,5.18,2.41,0,4.05-1.14,4.05-2.98,0-1.35-.85-2.34-2.84-3.05l-4.05-1.42c-6.25-2.2-11.01-7.67-11.01-14.56,0-9.44,8.45-15.98,18.96-15.98,6.82,0,13.56,2.91,17.82,7.03l-6.96,10.37c-2.98-3.05-7.95-4.97-11.08-4.97-2.13,0-3.27.78-3.27,2.27s1.07,2.77,4.26,3.91l3.12,1.14c6.46,2.34,10.65,6.75,10.65,13.63,0,9.73-8.31,17.04-20.24,17.04-5.89,0-12.43-1.78-18.32-7.46Z"/>
  </g>
</svg>