<?xml version="1.0" encoding="UTF-8"?>
<svg id="Layer_1" data-name="Layer 1" xmlns="http://www.w3.org/2000/svg" viewBox="0 0 85.93 28.23">
  <defs>
    <style>
      .cls-1 {
        fill: #fff;
      }
    </style>
  </defs>
  <path class="cls-1" d="M4.33.4h11.13c6.2,0,9.94,3.1,9.94,7.87,0,2.9-1.03,6.8-5.69,9.46l4.1,10.1h-9.3l-2.86-9.14h-1.47l-1.43,9.14H0L4.33.4ZM16.58,9.34c0-1.63-1.07-2.19-2.62-2.19h-1.99l-.76,4.77h2.23c1.71,0,3.14-.95,3.14-2.58Z"/>
  <path class="cls-1" d="M26.2.4h18.53l-1.15,7.08h-9.82l-.52,3.1h9.3l-1.11,6.92h-9.26l-.52,3.26h10.22l-1.11,7.08h-18.89L26.2.4Z"/>
  <path class="cls-1" d="M46.89.4h10.89c5.92,0,9.62,3.42,9.62,9.03s-3.86,10.26-11.41,10.26h-3.38l-1.31,8.15h-8.75L46.89.4ZM58.58,9.78c0-1.67-.91-2.43-2.7-2.43h-1.47l-.83,5.37h1.55c2.27,0,3.46-.99,3.46-2.94Z"/>
  <path class="cls-1" d="M62.51,24.05l4.33-5.69c2.19,2.07,4.65,2.9,6.24,2.9,1.35,0,2.27-.64,2.27-1.67,0-.76-.48-1.31-1.59-1.71l-2.27-.79c-3.5-1.23-6.16-4.29-6.16-8.15,0-5.29,4.73-8.95,10.62-8.95,3.82,0,7.59,1.63,9.98,3.94l-3.9,5.8c-1.67-1.71-4.45-2.78-6.2-2.78-1.19,0-1.83.44-1.83,1.27s.6,1.55,2.39,2.19l1.75.64c3.62,1.31,5.96,3.78,5.96,7.63,0,5.45-4.65,9.54-11.33,9.54-3.3,0-6.96-.99-10.26-4.17Z"/>
</svg>